<svg width="16px" height="15px" viewBox="0 0 16 15" version="1.1" xmlns="http://www.w3.org/2000/svg" xmlns:xlink="http://www.w3.org/1999/xlink">
    <defs>
        <polygon id="path-1" points="0.130823529 0.874352941 15.1374118 0.874352941 15.1374118 14.6616471 0.130823529 14.6616471"></polygon>
        <path d="M7.2,0.874352941 C7.02117647,0.980705882 6.86211765,1.13694118 6.74635294,1.29129412 L6.74635294,1.29129412 L0.270117647,12.9901176 C0.200470588,13.1058824 0.154352941,13.2357647 0.130823529,13.3694118 L0.130823529,13.3694118 L0.130823529,13.7722353 C0.154352941,13.8964706 0.200470588,14.0122353 0.270117647,14.1044706 L0.270117647,14.1044706 C0.371764706,14.3068235 0.583529412,14.5468235 0.851764706,14.6616471 L0.851764706,14.6616471 L14.4178824,14.6616471 C14.6804706,14.5430588 14.9308235,14.2889412 15.0324706,14.0348235 L15.0324706,14.0348235 C15.1717647,13.6865882 15.1717647,13.2696471 15.0324706,12.8517647 L15.0324706,12.8517647 L8.55623529,1.29129412 C8.48564706,1.11247059 8.35858824,0.970352941 8.19482353,0.874352941 L8.19482353,0.874352941 L7.2,0.874352941 Z M0.896941176,13.7562353 C0.827294118,13.6865882 0.827294118,13.5482353 0.896941176,13.408 L0.896941176,13.408 L7.37317647,1.77882353 C7.44188235,1.70917647 7.51247059,1.63952941 7.65082353,1.63952941 L7.65082353,1.63952941 C7.79105882,1.63952941 7.86070588,1.63952941 7.92941176,1.77882353 L7.92941176,1.77882353 L14.4056471,13.2696471 C14.4752941,13.4785882 14.4752941,13.6865882 14.4056471,13.7562353 L14.4056471,13.7562353 C14.3369412,13.8258824 14.2663529,13.9651765 14.128,13.9651765 L14.128,13.9651765 L1.17552941,13.9651765 C1.10494118,13.9651765 0.965647059,13.8955294 0.896941176,13.7562353 L0.896941176,13.7562353 Z" id="path-3"></path>
        <path d="M0.297411765,0.694588235 L0.435764706,5.56894118 L1.34117647,5.56894118 L1.48047059,0.694588235 L0.297411765,0.694588235 Z M0.0884705882,7.03058824 C0.0884705882,7.03529412 0.0884705882,7.04 0.0884705882,7.04470588 L0.0884705882,7.04470588 C0.0894117647,7.05411765 0.0894117647,7.06352941 0.0894117647,7.07294118 L0.0894117647,7.07294118 C0.104470588,7.328 0.249411765,7.52564706 0.441411765,7.616 L0.441411765,7.616 C0.442352941,7.616 0.442352941,7.616 0.442352941,7.616 L0.442352941,7.616 C0.446117647,7.61788235 0.448941176,7.61882353 0.452705882,7.62070588 L0.452705882,7.62070588 C0.454588235,7.62164706 0.457411765,7.62258824 0.459294118,7.62352941 L0.459294118,7.62352941 C0.460235294,7.62447059 0.462117647,7.62447059 0.463058824,7.62541176 L0.463058824,7.62541176 C0.495058824,7.63858824 0.528941176,7.64894118 0.562823529,7.65647059 L0.562823529,7.65647059 C0.570352941,7.65741176 0.578823529,7.65929412 0.586352941,7.66117647 L0.586352941,7.66117647 C0.618352941,7.66588235 0.650352941,7.66870588 0.682352941,7.66870588 L0.682352941,7.66870588 C0.683294118,7.66870588 0.683294118,7.66776471 0.684235294,7.66776471 L0.684235294,7.66776471 C0.699294118,7.66776471 0.715294118,7.66682353 0.730352941,7.66588235 L0.730352941,7.66588235 C0.748235294,7.664 0.767058824,7.66117647 0.784941176,7.65741176 L0.784941176,7.65741176 C1.20282353,7.65741176 1.48047059,7.37882353 1.48047059,7.03058824 L1.48047059,7.03058824 C1.48047059,6.68235294 1.20282353,6.40376471 0.784941176,6.40376471 L0.784941176,6.40376471 C0.366117647,6.40376471 0.0884705882,6.68235294 0.0884705882,7.03058824 L0.0884705882,7.03058824 Z" id="path-5"></path>
    </defs>
    <g id="Symbols" stroke="none" stroke-width="1" fill="none" fill-rule="evenodd">
        <g id="icon/error">
            <g>
                <g>
                    <g transform="translate(0.000000, 0.000000)">
                        <mask id="mask-2" fill="white">
                            <use xlink:href="#path-1"></use>
                        </mask>
                        <g id="Clip-2"></g>
                        <path d="M7.65129412,1.63981176 C7.512,1.63981176 7.44235294,1.70945882 7.37270588,1.77910588 L0.896470588,13.4082824 C0.826823529,13.5475765 0.826823529,13.6868706 0.896470588,13.7565176 C0.966117647,13.8958118 1.10541176,13.9654588 1.17505882,13.9654588 L14.1275294,13.9654588 C14.2668235,13.9654588 14.3364706,13.8261647 14.4061176,13.7565176 C14.4757647,13.6868706 14.4757647,13.4779294 14.4061176,13.2689882 L7.92988235,1.77910588 C7.86023529,1.63981176 7.79058824,1.63981176 7.65129412,1.63981176 M14.1275294,14.7315765 L1.17505882,14.7315765 C0.757176471,14.7315765 0.408941176,14.3833412 0.269647059,14.1047529 C0.0607058824,13.8261647 0.0607058824,13.3386353 0.269647059,12.9904 L6.74588235,1.29157647 C6.95482353,1.01298824 7.30305882,0.7344 7.65129412,0.7344 C8.06917647,0.7344 8.41741176,0.943341176 8.55670588,1.29157647 L15.0329412,12.8511059 C15.1722353,13.2689882 15.1722353,13.6868706 15.0329412,14.0351059 C14.8936471,14.3833412 14.4757647,14.7315765 14.1275294,14.7315765" id="Fill-1" fill="#DC3545" mask="url(#mask-2)"></path>
                    </g>
                </g>
                <g id="Group-9" transform="translate(0.000000, 0.217412)">
                    <mask id="mask-4" fill="white">
                        <use xlink:href="#path-3"></use>
                    </mask>
                    <g id="Clip-8"></g>
                    <polygon id="Fill-7" fill="#FF0000" mask="url(#mask-4)" points="-3.35152941 18.144 18.6531765 18.144 18.6531765 -2.67764706 -3.35152941 -2.67764706"></polygon>
                </g>
                <g id="Group-15" transform="translate(6.588235, 4.923294)">
                    <mask id="mask-6" fill="white">
                        <use xlink:href="#path-5"></use>
                    </mask>
                    <g id="Clip-14"></g>
                    <polygon id="Fill-13" fill="#FF0000" mask="url(#mask-6)" points="-3.39388235 11.2094118 5.03247059 11.2094118 5.03247059 -2.71811765 -3.39388235 -2.71811765"></polygon>
                </g>
            </g>
        </g>
    </g>
</svg>